<?xml version="1.0" encoding="UTF-8"?>
<svg width="15px" height="15px" viewBox="0 0 15 15" version="1.1" xmlns="http://www.w3.org/2000/svg" xmlns:xlink="http://www.w3.org/1999/xlink">
    <title>open-in-new</title>
    <g id="Trial-Details" stroke="none" stroke-width="1" fill="none" fill-rule="evenodd">
        <g id="Clinical-Trial-Matching-Trial-Details-01" transform="translate(-1380.000000, -388.000000)" fill="#FFFFFF" fill-rule="nonzero">
            <g id="Group-19" transform="translate(1380.000000, 384.000000)">
                <g id="open-in-new" transform="translate(0.000000, 4.000000)">
                    <path d="M9.16666667,0 L9.16666667,1.66666667 L12.1583333,1.66666667 L3.96666667,9.85833333 L5.14166667,11.0333333 L13.3333333,2.84166667 L13.3333333,5.83333333 L15,5.83333333 L15,0 M13.3333333,13.3333333 L1.66666667,13.3333333 L1.66666667,1.66666667 L7.5,1.66666667 L7.5,0 L1.66666667,0 C0.741666667,0 0,0.75 0,1.66666667 L0,13.3333333 C0,14.2538079 0.746192084,15 1.66666667,15 L13.3333333,15 C14.2538079,15 15,14.2538079 15,13.3333333 L15,7.5 L13.3333333,7.5 L13.3333333,13.3333333 Z" id="Shape"></path>
                </g>
            </g>
        </g>
    </g>
</svg>