<?xml version="1.0" encoding="UTF-8"?>
<svg width="16px" height="16px" viewBox="0 0 16 16" version="1.1" xmlns="http://www.w3.org/2000/svg" xmlns:xlink="http://www.w3.org/1999/xlink">
    <title>Shape</title>
    <g id="New-Search" stroke="none" stroke-width="1" fill="none" fill-rule="evenodd">
        <g id="Clinical-Trial-Matching-New-Search-01" transform="translate(-1270.000000, -628.000000)" fill="#659A78" fill-rule="nonzero">
            <g id="Group-16" transform="translate(494.000000, 613.000000)">
                <g id="Group-8" transform="translate(776.000000, 11.000000)">
                    <path d="M8,4 C3.581722,4 0,7.581722 0,12 C0,14.1217319 0.842854723,16.1565632 2.34314575,17.6568542 C3.84343678,19.1571453 5.87826808,20 8,20 C10.1217319,20 12.1565632,19.1571453 13.6568542,17.6568542 C15.1571453,16.1565632 16,14.1217319 16,12 C16,11.072 15.832,10.152 15.512,9.288 L14.232,10.568 C14.344,11.04 14.4,11.52 14.4,12 C14.4,15.5346224 11.5346224,18.4 8,18.4 C4.4653776,18.4 1.6,15.5346224 1.6,12 C1.6,8.4653776 4.4653776,5.6 8,5.6 C8.48,5.6 8.96,5.656 9.432,5.768 L10.72,4.48 C9.848,4.168 8.928,4 8,4 M13.6,4 L10.4,7.2 L10.4,8.4 L8.36,10.44 C8.24,10.4 8.12,10.4 8,10.4 C7.1163444,10.4 6.4,11.1163444 6.4,12 C6.4,12.8836556 7.1163444,13.6 8,13.6 C8.8836556,13.6 9.6,12.8836556 9.6,12 C9.6,11.88 9.6,11.76 9.56,11.64 L11.6,9.6 L12.8,9.6 L16,6.4 L13.6,6.4 L13.6,4 M8,7.2 C5.3490332,7.2 3.2,9.3490332 3.2,12 C3.2,14.6509668 5.3490332,16.8 8,16.8 C9.27303915,16.8 10.4939379,16.2942872 11.3941125,15.3941125 C12.2942872,14.4939379 12.8,13.2730392 12.8,12 L11.2,12 C11.2,13.7673112 9.7673112,15.2 8,15.2 C6.2326888,15.2 4.8,13.7673112 4.8,12 C4.8,10.2326888 6.2326888,8.8 8,8.8 L8,7.2 Z" id="Shape"></path>
                </g>
            </g>
        </g>
    </g>
</svg>