<?xml version="1.0" encoding="UTF-8"?>
<svg width="24px" height="24px" viewBox="0 0 24 24" version="1.1" xmlns="http://www.w3.org/2000/svg" xmlns:xlink="http://www.w3.org/1999/xlink">
    <title>Shape</title>
    <g id="Trial-Details" stroke="none" stroke-width="1" fill="none" fill-rule="evenodd">
        <g id="Clinical-Trial-Matching-Trial-Details-01" transform="translate(-1200.000000, -268.000000)" fill="currentColor" fill-rule="nonzero">
            <g id="Group-8" transform="translate(1200.000000, 264.000000)">
                <path d="M12,4 C5.372583,4 0,9.372583 0,16 C0,19.1825979 1.26428208,22.2348448 3.51471863,24.4852814 C5.76515517,26.7357179 8.81740212,28 12,28 C15.1825979,28 18.2348448,26.7357179 20.4852814,24.4852814 C22.7357179,22.2348448 24,19.1825979 24,16 C24,14.608 23.748,13.228 23.268,11.932 L21.348,13.852 C21.516,14.56 21.6,15.28 21.6,16 C21.6,21.3019336 17.3019336,25.6 12,25.6 C6.6980664,25.6 2.4,21.3019336 2.4,16 C2.4,10.6980664 6.6980664,6.4 12,6.4 C12.72,6.4 13.44,6.484 14.148,6.652 L16.08,4.72 C14.772,4.252 13.392,4 12,4 M20.4,4 L15.6,8.8 L15.6,10.6 L12.54,13.66 C12.36,13.6 12.18,13.6 12,13.6 C10.6745166,13.6 9.6,14.6745166 9.6,16 C9.6,17.3254834 10.6745166,18.4 12,18.4 C13.3254834,18.4 14.4,17.3254834 14.4,16 C14.4,15.82 14.4,15.64 14.34,15.46 L17.4,12.4 L19.2,12.4 L24,7.6 L20.4,7.6 L20.4,4 M12,8.8 C8.0235498,8.8 4.8,12.0235498 4.8,16 C4.8,19.9764502 8.0235498,23.2 12,23.2 C13.9095587,23.2 15.7409069,22.4414307 17.0911688,21.0911688 C18.4414307,19.7409069 19.2,17.9095587 19.2,16 L16.8,16 C16.8,18.6509668 14.6509668,20.8 12,20.8 C9.3490332,20.8 7.2,18.6509668 7.2,16 C7.2,13.3490332 9.3490332,11.2 12,11.2 L12,8.8 Z" id="Shape"></path>
            </g>
        </g>
    </g>
</svg>
