<?xml version="1.0" encoding="UTF-8"?>
<svg width="21px" height="21px" viewBox="0 0 21 21" version="1.1" xmlns="http://www.w3.org/2000/svg" xmlns:xlink="http://www.w3.org/1999/xlink">
    <title>Shape</title>
    <g id="Trial-Details" stroke="none" stroke-width="1" fill="none" fill-rule="evenodd">
        <g id="Clinical-Trial-Matching-Trial-Details-04" transform="translate(-1529.000000, -291.000000)" fill="currentColor" fill-rule="nonzero">
            <g id="Group-7" transform="translate(34.000000, 253.000000)">
                <g id="content-save-off-(1)" transform="translate(1495.000000, 38.000000)">
                    <path d="M7.09,3.27 L5.09,1.27 L15.89,1.27 L19.89,5.27 L19.89,16.07 L11.09,7.27 L13.89,7.27 L13.89,3.27 L7.09,3.27 M21,19.73 L19.73,21 L17.99,19.27 C17.96,19.27 17.92,19.27 17.89,19.27 L3.89,19.27 C2.79,19.27 1.89,18.38 1.89,17.27 L1.89,3.27 C1.89,3.24 1.89,3.2 1.89,3.17 L6.66133815e-16,1.27 L1.28,-4.4408921e-16 L21,19.73 M6,7.27 L3.89,5.16 L3.89,7.27 L6,7.27 M13.78,15.05 L10.11,11.38 C8.84,11.73 7.89,12.88 7.89,14.27 C7.89,15.93 9.23,17.27 10.89,17.27 C12.28,17.27 13.43,16.32 13.78,15.05 Z" id="Shape"></path>
                </g>
            </g>
        </g>
    </g>
</svg>